Simulation
nRows=16
nColumns=15
endheader
time  TH_x TH_y TH_z SC_y  SC_z  SC_x  AC_y  AC_z  AC_x  GH_y  GH_z  GH_yy  EL_x  PS_y
0.0  0.000000  0.000000  0.000000  -29.403198958805074  -0.4676195301058302  1.498713742289832  50.705019734934865  5.517644348095608  -6.155992053570295  30.67395917497946  -1.9345190659240932  -1.4569797443240495  22.69227728568612  0.000000
0.031  0.000000  0.000000  0.000000  -29.28747190497769  -0.5112160814039012  1.420817165403505  50.67518822086664  5.490968790497155  -6.127803707096705  30.614525505497767  -1.9730137192667294  -1.4779126128320574  22.802776709480867  0.000000
0.062  0.000000  0.000000  0.000000  -29.216535265470537  -0.5740420494783455  1.2476453976516155  50.62803650228013  5.625407777728996  -6.126858287449005  30.61684763503372  -2.016730457855782  -1.4113652650693351  22.923701473973136  0.000000
0.093  0.000000  0.000000  0.000000  -29.273216481126106  -0.6495626968940507  1.0707099172114873  50.577267740836305  5.774508772295297  -6.095859545533999  30.582737406294605  -1.991799987947621  -1.3577624029517337  22.910423538885492  0.000000
0.124  0.000000  0.000000  0.000000  -29.28144839524063  -0.7459132032123384  0.9120474500450855  50.54142867659938  5.9280255086571545  -6.096028922629426  30.48330419528789  -1.8953828039834213  -1.3466532238250755  22.823089626499296  0.000000
0.155  0.000000  0.000000  0.000000  -29.2686697358773  -0.8372280228845095  0.8275043761055236  50.481264201046656  6.050635547508643  -6.155208661601049  30.33511196469389  -1.6930301347280843  -1.361841642947396  22.68453164148823  0.000000
0.186  0.000000  0.000000  0.000000  -29.23168888165986  -0.9235316419295782  0.8064491504835406  50.32680950532176  6.122172273446715  -6.309247898666883  30.151348145299792  -1.2977360275048215  -1.4157301952889245  22.505165324851884  0.000000
0.217  0.000000  0.000000  0.000000  -29.223074968400862  -0.9814280889056705  0.7041287548014205  50.08353387720888  6.144155828443718  -6.448670688468011  30.041605180447345  -0.5797702068428776  -1.5396240161918264  22.300872435517853  0.000000
0.248  0.000000  0.000000  0.000000  -29.29521804463212  -1.023572368301338  0.43883075495793145  49.92153016926865  6.071517693311721  -6.437421192391223  30.05101190226594  0.4748243525415948  -1.901089168773128  22.061583151380074  0.000000
0.279  0.000000  0.000000  0.000000  -29.43159611192552  -1.0790499523725037  0.20856026372397202  49.944314483312084  5.899123090286855  -6.324625585351086  30.152668306188374  1.6272103215492453  -2.5490350481100745  21.815655181884004  0.000000
0.31  0.000000  0.000000  0.000000  -29.562203359268285  -1.1165045895832455  0.12641767514712587  50.0685267100662  5.742566897573741  -6.192179066685142  30.295681591373192  2.67764935436175  -3.3510412372400977  21.63615541179491  0.000000
0.34099999999999997  0.000000  0.000000  0.000000  -29.67677005850215  -1.115637444137728  0.08179738407564238  50.220436069528276  5.6873267398887775  -6.041658775748881  30.427535692615972  3.682190571984232  -4.214179185249101  21.519089370106624  0.000000
0.372  0.000000  0.000000  0.000000  -29.792445441874605  -1.0999631460443073  0.000707991835263119  50.35931824337637  5.730857649479082  -5.866519564835613  30.512820552896383  4.734643059123085  -5.122308781580077  21.433294061702725  0.000000
0.403  0.000000  0.000000  0.000000  -29.928395247736525  -1.090666695964942  -0.10698894957871442  50.51962674449781  5.827554063807594  -5.66397001258384  30.520986910689636  5.875353122041184  -6.078127703275259  21.35672261559396  0.000000
0.434  0.000000  0.000000  0.000000  -30.0969286680738  -1.0944093146496023  -0.1986637279150439  50.741427375243255  5.921698936323117  -5.4353432735025855  30.427315049572922  7.110477811711063  -7.079092136561965  21.30196388729428  0.000000
0.46499999999999997  0.000000  0.000000  0.000000  -30.277022877882075  -1.1025124925342336  -0.24644714703003692  51.02970401825061  5.987985017637914  -5.192381708181062  30.228872717562947  8.423772027989097  -8.094338086137443  21.29687531032897  0.000000
